<?xml version="1.0" encoding="utf-8"?>
<!-- Generator: Adobe Illustrator 16.0.0, SVG Export Plug-In . SVG Version: 6.00 Build 0)  -->
<!DOCTYPE svg PUBLIC "-//W3C//DTD SVG 1.1//EN" "http://www.w3.org/Graphics/SVG/1.1/DTD/svg11.dtd">
<svg version="1.1" id="Layer_1" xmlns:svg="http://www.w3.org/2000/svg"
	 xmlns="http://www.w3.org/2000/svg" xmlns:xlink="http://www.w3.org/1999/xlink" x="0px" y="0px" width="200px" height="25px"
	 viewBox="0 0 200 25" enable-background="new 0 0 200 25" xml:space="preserve">
<path fill="#D3E0EF" fill-opacity="0.42" d="M10,7.5c2.761,0,5,2.239,5,5c0,2.762-2.239,5-5,5s-5-2.238-5-5l0,0
	C5,9.739,7.239,7.5,10,7.5z M30,7.5c2.761,0,5,2.239,5,5c0,2.762-2.239,5-5,5s-5-2.238-5-5C25,9.739,27.239,7.5,30,7.5L30,7.5z
	 M50,7.5c2.761,0,5,2.239,5,5c0,2.762-2.239,5-5,5s-5-2.238-5-5C45,9.739,47.239,7.5,50,7.5L50,7.5z M70,7.5c2.761,0,5,2.239,5,5
	c0,2.762-2.239,5-5,5s-5-2.238-5-5C65,9.739,67.239,7.5,70,7.5L70,7.5z M90,7.5c2.761,0,5,2.239,5,5c0,2.762-2.239,5-5,5
	s-5-2.238-5-5l0,0C85,9.739,87.239,7.5,90,7.5z M110,7.5c2.762,0,5,2.239,5,5c0,2.762-2.238,5-5,5s-5-2.238-5-5
	C105,9.739,107.238,7.5,110,7.5L110,7.5z M130,7.5c2.762,0,5,2.239,5,5c0,2.762-2.238,5-5,5s-5-2.238-5-5
	C125,9.739,127.238,7.5,130,7.5z M150,7.5c2.762,0,5,2.239,5,5c0,2.762-2.238,5-5,5s-5-2.238-5-5l0,0C145,9.739,147.238,7.5,150,7.5
	z M170,7.5c2.762,0,5,2.239,5,5c0,2.762-2.238,5-5,5s-5-2.238-5-5C165,9.739,167.238,7.5,170,7.5L170,7.5z M190,7.5
	c2.762,0,5,2.239,5,5c0,2.762-2.238,5-5,5s-5-2.238-5-5C185,9.739,187.238,7.5,190,7.5z"/>
<g>
	<path fill="#364699" d="M-66.719,6c3.59,0,6.5,2.91,6.5,6.5l0,0c0,3.59-2.91,6.5-6.5,6.5s-6.5-2.91-6.5-6.5S-70.309,6-66.719,6
		L-66.719,6z M-46.719,5c4.142,0,7.5,3.358,7.5,7.5l0,0c0,4.143-3.358,7.5-7.5,7.5l0,0c-4.142,0-7.5-3.357-7.5-7.5
		C-54.219,8.358-50.861,5-46.719,5L-46.719,5z M-26.719,4c4.694,0,8.5,3.806,8.5,8.5l0,0c0,4.694-3.806,8.5-8.5,8.5l0,0
		c-4.694,0-8.5-3.806-8.5-8.5l0,0C-35.219,7.806-31.413,4-26.719,4L-26.719,4z"/>
	
		<animateTransform  type="translate" fill="remove" restart="always" additive="replace" accumulate="none" repeatCount="indefinite" dur="1170ms" calcMode="discrete" values="23 0;36 0;49 0;62 0;74.5 0;87.5 0;100 0;113 0;125.5 0;138.5 0;151.5 0;164.5 0;178 0" attributeName="transform">
		</animateTransform>
</g>
</svg>
